PathFileType	4	(X/Y/Z)	Walk5.trc
DataRate	CameraRate	NumFrames	NumMarkers	Units	OrigDataRate	OrigDataStartFrame	OrigNumFrames
200.000000	200.000000	4	61	mm	200.000000	581	813
Frame#	Times		RCAR		LToe		LMT5		LTB1		RWRU		LLFC		RWRR		RFHD		RACR1		RFA1		LMT1		LUA1		LFA1		LTH2		LElbow		STRN		LACR1		LCAR		LASI		RTH3		RTB2		LWRU		RPSI		RLFC		LFHD		LWRR		C7		LPSI		RToe		RMT1		RMT5		RMFC		CLAV		RTB3		RTB1		LMFC		RTB4		LTH1		LTH3		RTH2		RCAL		RASI		RLMAL		LTB2		RMMAL		LTB4		LBHD		RBHD		RTH4		RBack		LTB3		RUA1		LMMAL		LTH4		RElbow		RTH1		LCAL		T10		LElbowM		LLMAL		RElbowM
			X1	Y1	Z1	X2	Y2	Z2	X3	Y3	Z3	X4	Y4	Z4	X5	Y5	Z5	X6	Y6	Z6	X7	Y7	Z7	X8	Y8	Z8	X9	Y9	Z9	X10	Y10	Z10	X11	Y11	Z11	X12	Y12	Z12	X13	Y13	Z13	X14	Y14	Z14	X15	Y15	Z15	X16	Y16	Z16	X17	Y17	Z17	X18	Y18	Z18	X19	Y19	Z19	X20	Y20	Z20	X21	Y21	Z21	X22	Y22	Z22	X23	Y23	Z23	X24	Y24	Z24	X25	Y25	Z25	X26	Y26	Z26	X27	Y27	Z27	X28	Y28	Z28	X29	Y29	Z29	X30	Y30	Z30	X31	Y31	Z31	X32	Y32	Z32	X33	Y33	Z33	X34	Y34	Z34	X35	Y35	Z35	X36	Y36	Z36	X37	Y37	Z37	X38	Y38	Z38	X39	Y39	Z39	X40	Y40	Z40	X41	Y41	Z41	X42	Y42	Z42	X43	Y43	Z43	X44	Y44	Z44	X45	Y45	Z45	X46	Y46	Z46	X47	Y47	Z47	X48	Y48	Z48	X49	Y49	Z49	X50	Y50	Z50	X51	Y51	Z51	X52	Y52	Z52	X53	Y53	Z53	X54	Y54	Z54	X55	Y55	Z55	X56	Y56	Z56	X57	Y57	Z57	X58	Y58	Z58	X59	Y59	Z59	X60	Y60	Z60	X61	Y61	Z61

581	2.905	108.3	815.13	394.8	-96.39	30.131	-42.795	-200.76	33.893	-109.55	-109.98	343.46	-24.476	50.351	854.75	383.73	-76.825	493.31	-127.66	125.35	858.85	337.4	231.12	1677.6	126.24	90.742	1471.8	237.76	78.132	998.83	360.4	-150.86	44.092	-24.275	75.871	1326	-219.21	150.14	1036.2	-275.58	66.271	702.38	-148.87	50.925	1156.1	-268.73	214.46	1276.3	35.117	77.441	1509.3	-135.68	216.36	883.66	-289.87	144.85	1010.8	-135.52	170.84	632.21	218.94	318.76	289.11	182.59	138.91	903.82	-286.94	-73.518	1041	83.627	231.95	510.48	212.53	232.92	1684.8	21.222	213.88	920.67	-233.05	-18.568	1534.9	62.148	-76.239	1051.9	-24.483	500.26	58.953	120.06	450.85	61.22	107.04	412.7	35.868	194.63	219	497.19	64.723	148.28	1447.7	36.155	320.6	204.6	118.04	304.26	376.58	125.94	-68.892	491.5	11.15	312.2	289.83	121.66	31.665	793.14	-185.23	-6.6133	626.42	-152.17	184.42	734.06	238.48	232.8	38.66	123.07	149.73	1022.4	188.63	289.35	73.367	165.27	-140.14	258.11	-78.925	315.04	106.18	73.273	-156.35	272.45	-19.903	66.72	1674.6	-1.9732	59.949	1668.6	140.29	131.16	706.07	226.39	-76.754	1413.6	170.65	-201.18	199.44	-16.159	58.74	1290.6	303.18	-265.98	121.23	23.169	12.96	709.69	-169.11	3.1428	1133.2	339.2	91.906	785.63	235.61	-366.73	101.14	-34.669	-58.265	1178.5	29.484	21.011	1123.8	-184.52	-296.51	105.92	-76.229	-16.623	1108.2	247.09
582	2.91	113.9	815.71	395.74	-96.538	30.123	-42.733	-200.32	34.83	-109.14	-104.22	343.84	-24.366	56.004	855.35	384.44	-69.328	493.37	-127.27	131.13	859.36	338.33	236.87	1678.2	127.3	96.115	1472.7	238.93	83.95	999.44	361.18	-150.68	44.059	-24.135	81.19	1327	-217.9	154.47	1036.6	-274.11	72.937	702.62	-148.12	55.886	1157	-267.13	219.59	1277.1	36.346	82.981	1510.3	-134.48	219.78	883.63	-288.6	150.24	1011.6	-134.06	175.63	632.94	219.68	321.19	288.82	183.01	142.45	904.3	-285.59	-68.033	1041.9	84.003	236.26	510.9	213.19	238.6	1685.3	22.277	217.58	920.62	-231.75	-13.106	1535.7	63.287	-70.701	1052.6	-24.301	500.72	57.288	119.97	451.26	60.062	107	412.92	35.01	195.06	223.48	497.85	65.42	153.75	1448.5	37.326	322.17	204.34	118.35	307.41	376.47	126.44	-60.955	491.19	11.217	314.56	289.64	122.07	37.919	793.28	-184.37	0.48848	626.29	-151.73	189.43	734.8	239.1	233.01	39.011	123.33	155.13	1023.5	189.67	289.87	73.299	165.57	-135.89	259.11	-78.815	315.68	106.07	73.564	-151.68	273.58	-19.758	72.37	1675.4	-0.798	65.71	1669.5	141.47	136.1	706.87	227.08	-71.366	1414.3	171.6	-197.61	201.22	-16.052	64.41	1291.3	304.08	-263.42	124.02	23.438	19.654	709.72	-168.4	9.0279	1133.7	339.82	97.001	786.52	236.34	-364.56	106.04	-34.19	-52.889	1179.3	30.027	26.042	1125	-182.73	-294.48	109.33	-75.881	-10.398	1108.9	247.63
583	2.915	119.51	816.41	396.67	-96.726	30.104	-42.668	-199.84	35.865	-108.71	-98.186	344.27	-24.308	61.659	856.05	385.11	-61.604	493.45	-126.92	136.91	860.01	339.26	242.62	1678.8	128.35	101.52	1473.6	240.1	89.742	1000.2	361.97	-150.49	44.049	-23.98	86.516	1328.1	-216.59	158.76	1037.1	-272.66	79.704	702.92	-147.43	60.82	1158.1	-265.55	224.68	1278	37.536	88.521	1511.4	-133.27	223.15	883.71	-287.32	155.53	1012.4	-132.65	180.16	633.63	220.4	323.43	288.53	183.39	145.94	904.91	-284.26	-62.546	1042.9	84.424	240.25	511.25	213.84	244.27	1685.9	23.33	221.2	920.67	-230.43	-7.6525	1536.5	64.438	-65.191	1053.4	-24.06	501.12	55.831	119.82	451.61	59.065	106.91	413.1	34.315	195.46	227.66	498.43	66.101	159.21	1449.5	38.489	323.6	204.1	118.62	310.35	376.36	126.91	-52.701	490.85	11.241	316.75	289.47	122.45	44.218	793.47	-183.52	7.7335	626.18	-151.35	194.27	735.47	239.76	233.22	39.311	123.56	160.53	1024.7	190.67	290.33	73.247	165.83	-131.44	260.21	-78.75	316.25	105.97	73.81	-146.77	274.79	-19.644	78.008	1676.3	0.37615	71.463	1670.4	142.65	140.85	707.65	227.76	-65.951	1415.1	172.57	-193.79	203.09	-15.976	70.076	1292	305	-260.61	126.98	23.723	26.442	709.8	-167.73	14.863	1134.4	340.44	101.98	787.42	237.06	-362.13	111.22	-33.653	-47.512	1180.2	30.63	31.025	1126.3	-180.97	-292.24	112.93	-75.498	-4.1924	1109.7	248.17
584	2.92	125.12	817.21	397.58	-96.947	30.068	-42.6	-199.32	37.008	-108.27	-91.872	344.75	-24.298	67.32	856.85	385.76	-53.654	493.54	-126.61	142.7	860.77	340.18	248.35	1679.5	129.4	106.96	1474.6	241.26	95.508	1001	362.78	-150.26	44.067	-23.81	91.847	1329.2	-215.28	163	1037.8	-271.22	86.57	703.27	-146.79	65.726	1159.2	-264.01	229.74	1278.9	38.68	94.055	1512.6	-132.05	226.48	883.88	-286.02	160.74	1013.3	-131.31	184.42	634.26	221.08	325.5	288.24	183.74	149.39	905.66	-282.96	-57.063	1044	84.896	243.92	511.53	214.47	249.93	1686.6	24.378	224.76	920.83	-229.09	-2.207	1537.5	65.6	-59.712	1054.2	-23.755	501.47	54.566	119.64	451.9	58.216	106.77	413.26	33.769	195.82	231.53	498.96	66.762	164.66	1450.4	39.642	324.91	203.88	118.85	313.09	376.24	127.35	-44.129	490.48	11.227	318.77	289.3	122.79	50.561	793.71	-182.68	15.118	626.11	-151.02	198.94	736.05	240.46	233.4	39.564	123.75	165.93	1025.9	191.61	290.73	73.208	166.05	-126.76	261.4	-78.727	316.74	105.88	74.01	-141.59	276.09	-19.558	83.628	1677.2	1.5474	77.202	1671.4	143.83	145.41	708.43	228.42	-60.506	1416	173.57	-189.71	205.07	-15.922	75.739	1292.9	305.93	-257.55	130.09	24.026	33.323	709.91	-167.1	20.648	1135.2	341.08	106.85	788.35	237.78	-359.41	116.66	-33.047	-42.135	1181.1	31.291	35.957	1127.8	-179.24	-289.8	116.73	-75.074	1.982	1110.6	248.72
